<?xml version="1.0" standalone="no"?>
<!DOCTYPE svg PUBLIC "-//W3C//DTD SVG 20010904//EN"
 "http://www.w3.org/TR/2001/REC-SVG-20010904/DTD/svg10.dtd">
<svg version="1.0" xmlns="http://www.w3.org/2000/svg"
 width="512.000000pt" height="512.000000pt" viewBox="0 0 512.000000 512.000000"
 preserveAspectRatio="xMidYMid meet">
<metadata>
Created by potrace 1.11, written by Peter Selinger 2001-2013
</metadata>
<g transform="translate(0.000000,512.000000) scale(0.100000,-0.100000)"
fill="#000000" stroke="none">
<path d="M533 4471 c-87 -29 -146 -93 -168 -179 -9 -35 -12 -343 -12 -1222 0
-1148 0 -1177 19 -1229 24 -62 79 -120 145 -151 l47 -22 1992 0 c1451 0 1998
3 2013 12 12 6 21 8 21 5 0 -10 85 48 108 74 12 14 32 44 45 66 l22 40 0 1210
0 1210 -22 46 c-28 58 -76 106 -133 133 l-45 21 -1991 1 c-1840 2 -1996 0
-2041 -15z m3827 -1361 l0 -1018 -1797 1 -1798 2 -1 1016 -1 1017 1799 0 1798
0 0 -1018z"/>
<path d="M615 1388 c-49 -7 -87 -29 -152 -89 -21 -19 -94 -84 -163 -144 -69
-61 -130 -114 -136 -120 -6 -5 -39 -35 -73 -65 -83 -73 -91 -90 -91 -198 0
-74 3 -94 19 -113 l19 -24 2522 0 2522 0 19 24 c16 19 19 39 19 113 0 57 -5
99 -14 116 -8 15 -47 56 -88 92 -40 35 -80 71 -89 79 -8 9 -44 41 -79 71 -36
30 -76 66 -91 80 -24 22 -48 44 -154 134 -16 14 -45 31 -63 37 -38 12 -3842
19 -3927 7z m2478 -418 c36 -49 63 -91 59 -94 -4 -2 -263 -4 -575 -4 -532 -1
-568 0 -555 16 8 9 41 52 72 95 l58 77 437 0 438 0 66 -90z"/>
</g>
</svg>
